<svg xmlns="http://www.w3.org/2000/svg" width="1200" height="630" viewBox="0 0 1200 630">
  <rect width="1200" height="630" fill="#112240"/>

  <defs>
    <pattern id="grid3" width="40" height="40" patternUnits="userSpaceOnUse">
      <path d="M 40 0 L 0 0 0 40" fill="none" stroke="#1a2f52" stroke-width="0.8"/>
    </pattern>
    <radialGradient id="glow3" cx="50%" cy="50%" r="45%">
      <stop offset="0%" stop-color="#fa3434" stop-opacity="0.1"/>
      <stop offset="100%" stop-color="#112240" stop-opacity="0"/>
    </radialGradient>
  </defs>
  <rect width="1200" height="630" fill="url(#grid3)"/>
  <rect width="1200" height="630" fill="url(#glow3)"/>

  <!-- Circuit board traces (horizontal) -->
  <line x1="200" y1="200" x2="450" y2="200" stroke="#233554" stroke-width="3"/>
  <line x1="450" y1="200" x2="450" y2="280" stroke="#233554" stroke-width="3"/>
  <line x1="200" y1="320" x2="380" y2="320" stroke="#233554" stroke-width="3"/>
  <line x1="380" y1="320" x2="380" y2="280" stroke="#233554" stroke-width="3"/>
  <line x1="200" y1="430" x2="450" y2="430" stroke="#233554" stroke-width="3"/>
  <line x1="450" y1="430" x2="450" y2="380" stroke="#233554" stroke-width="3"/>

  <!-- Right side traces -->
  <line x1="750" y1="200" x2="1000" y2="200" stroke="#233554" stroke-width="3"/>
  <line x1="750" y1="200" x2="750" y2="280" stroke="#233554" stroke-width="3"/>
  <line x1="820" y1="320" x2="1000" y2="320" stroke="#233554" stroke-width="3"/>
  <line x1="820" y1="320" x2="820" y2="280" stroke="#233554" stroke-width="3"/>
  <line x1="750" y1="430" x2="1000" y2="430" stroke="#233554" stroke-width="3"/>
  <line x1="750" y1="430" x2="750" y2="380" stroke="#233554" stroke-width="3"/>

  <!-- Center chip -->
  <rect x="470" y="245" width="260" height="160" rx="6" fill="#0a192f" stroke="#fa3434" stroke-width="2.5"/>
  <!-- Chip pins left -->
  <line x1="450" y1="270" x2="470" y2="270" stroke="#fa3434" stroke-width="3"/>
  <line x1="450" y1="295" x2="470" y2="295" stroke="#fa3434" stroke-width="3"/>
  <line x1="450" y1="320" x2="470" y2="320" stroke="#fa3434" stroke-width="3"/>
  <line x1="450" y1="345" x2="470" y2="345" stroke="#fa3434" stroke-width="3"/>
  <line x1="450" y1="370" x2="470" y2="370" stroke="#fa3434" stroke-width="3"/>
  <line x1="450" y1="395" x2="470" y2="395" stroke="#fa3434" stroke-width="3"/>
  <!-- Chip pins right -->
  <line x1="730" y1="270" x2="750" y2="270" stroke="#fa3434" stroke-width="3"/>
  <line x1="730" y1="295" x2="750" y2="295" stroke="#fa3434" stroke-width="3"/>
  <line x1="730" y1="320" x2="750" y2="320" stroke="#fa3434" stroke-width="3"/>
  <line x1="730" y1="345" x2="750" y2="345" stroke="#fa3434" stroke-width="3"/>
  <line x1="730" y1="370" x2="750" y2="370" stroke="#fa3434" stroke-width="3"/>
  <line x1="730" y1="395" x2="750" y2="395" stroke="#fa3434" stroke-width="3"/>
  <!-- Chip pins top -->
  <line x1="520" y1="225" x2="520" y2="245" stroke="#57cbff" stroke-width="3"/>
  <line x1="555" y1="225" x2="555" y2="245" stroke="#57cbff" stroke-width="3"/>
  <line x1="590" y1="225" x2="590" y2="245" stroke="#57cbff" stroke-width="3"/>
  <line x1="625" y1="225" x2="625" y2="245" stroke="#57cbff" stroke-width="3"/>
  <line x1="660" y1="225" x2="660" y2="245" stroke="#57cbff" stroke-width="3"/>
  <line x1="695" y1="225" x2="695" y2="245" stroke="#57cbff" stroke-width="3"/>
  <!-- Chip pins bottom -->
  <line x1="520" y1="405" x2="520" y2="425" stroke="#57cbff" stroke-width="3"/>
  <line x1="555" y1="405" x2="555" y2="425" stroke="#57cbff" stroke-width="3"/>
  <line x1="590" y1="405" x2="590" y2="425" stroke="#57cbff" stroke-width="3"/>
  <line x1="625" y1="405" x2="625" y2="425" stroke="#57cbff" stroke-width="3"/>
  <line x1="660" y1="405" x2="660" y2="425" stroke="#57cbff" stroke-width="3"/>
  <line x1="695" y1="405" x2="695" y2="425" stroke="#57cbff" stroke-width="3"/>

  <!-- CIM text inside chip -->
  <text x="600" y="312" text-anchor="middle" font-family="monospace" font-size="44" fill="#fa3434" font-weight="bold" letter-spacing="6">CIM</text>
  <text x="600" y="338" text-anchor="middle" font-family="monospace" font-size="11" fill="#57cbff" letter-spacing="3" opacity="0.8">CONTENT INTELLIGENCE</text>

  <!-- Corner via circles on traces -->
  <circle cx="450" cy="200" r="5" fill="#fa3434" opacity="0.7"/>
  <circle cx="380" cy="320" r="5" fill="#57cbff" opacity="0.7"/>
  <circle cx="450" cy="430" r="5" fill="#fa3434" opacity="0.7"/>
  <circle cx="750" cy="200" r="5" fill="#57cbff" opacity="0.7"/>
  <circle cx="820" cy="320" r="5" fill="#fa3434" opacity="0.7"/>
  <circle cx="750" cy="430" r="5" fill="#57cbff" opacity="0.7"/>

  <!-- Labels -->
  <text x="600" y="510" text-anchor="middle" font-family="monospace" font-size="22" fill="#fa3434" letter-spacing="4" opacity="0.9">CIM</text>
  <text x="600" y="540" text-anchor="middle" font-family="monospace" font-size="13" fill="#8892b0" letter-spacing="2">Content Intelligence Manager</text>

  <!-- Corner accents -->
  <line x1="30" y1="30" x2="80" y2="30" stroke="#fa3434" stroke-width="2" opacity="0.4"/>
  <line x1="30" y1="30" x2="30" y2="80" stroke="#fa3434" stroke-width="2" opacity="0.4"/>
  <line x1="1170" y1="30" x2="1120" y2="30" stroke="#fa3434" stroke-width="2" opacity="0.4"/>
  <line x1="1170" y1="30" x2="1170" y2="80" stroke="#fa3434" stroke-width="2" opacity="0.4"/>
  <line x1="30" y1="600" x2="80" y2="600" stroke="#fa3434" stroke-width="2" opacity="0.4"/>
  <line x1="30" y1="600" x2="30" y2="550" stroke="#fa3434" stroke-width="2" opacity="0.4"/>
  <line x1="1170" y1="600" x2="1120" y2="600" stroke="#fa3434" stroke-width="2" opacity="0.4"/>
  <line x1="1170" y1="600" x2="1170" y2="550" stroke="#fa3434" stroke-width="2" opacity="0.4"/>
</svg>
