<svg xmlns="http://www.w3.org/2000/svg" width="1200" height="630" viewBox="0 0 1200 630">
  <rect width="1200" height="630" fill="#112240"/>

  <defs>
    <pattern id="grid2" width="60" height="60" patternUnits="userSpaceOnUse">
      <path d="M 60 0 L 0 0 0 60" fill="none" stroke="#1d3461" stroke-width="1"/>
    </pattern>
    <radialGradient id="glow2" cx="50%" cy="50%" r="50%">
      <stop offset="0%" stop-color="#57cbff" stop-opacity="0.12"/>
      <stop offset="100%" stop-color="#112240" stop-opacity="0"/>
    </radialGradient>
  </defs>
  <rect width="1200" height="630" fill="url(#grid2)"/>
  <rect width="1200" height="630" fill="url(#glow2)"/>

  <!-- Film strip outer frame -->
  <rect x="350" y="165" width="500" height="270" rx="8" fill="none" stroke="#57cbff" stroke-width="2" opacity="0.7"/>

  <!-- Film sprocket holes - top row -->
  <rect x="370" y="172" width="18" height="14" rx="3" fill="#57cbff" opacity="0.5"/>
  <rect x="400" y="172" width="18" height="14" rx="3" fill="#57cbff" opacity="0.5"/>
  <rect x="430" y="172" width="18" height="14" rx="3" fill="#57cbff" opacity="0.5"/>
  <rect x="460" y="172" width="18" height="14" rx="3" fill="#57cbff" opacity="0.5"/>
  <rect x="490" y="172" width="18" height="14" rx="3" fill="#57cbff" opacity="0.5"/>
  <rect x="520" y="172" width="18" height="14" rx="3" fill="#57cbff" opacity="0.5"/>
  <rect x="550" y="172" width="18" height="14" rx="3" fill="#57cbff" opacity="0.5"/>
  <rect x="580" y="172" width="18" height="14" rx="3" fill="#57cbff" opacity="0.5"/>
  <rect x="610" y="172" width="18" height="14" rx="3" fill="#57cbff" opacity="0.5"/>
  <rect x="640" y="172" width="18" height="14" rx="3" fill="#57cbff" opacity="0.5"/>
  <rect x="670" y="172" width="18" height="14" rx="3" fill="#57cbff" opacity="0.5"/>
  <rect x="700" y="172" width="18" height="14" rx="3" fill="#57cbff" opacity="0.5"/>
  <rect x="730" y="172" width="18" height="14" rx="3" fill="#57cbff" opacity="0.5"/>
  <rect x="760" y="172" width="18" height="14" rx="3" fill="#57cbff" opacity="0.5"/>
  <rect x="790" y="172" width="18" height="14" rx="3" fill="#57cbff" opacity="0.5"/>
  <rect x="820" y="172" width="18" height="14" rx="3" fill="#57cbff" opacity="0.5"/>

  <!-- Film sprocket holes - bottom row -->
  <rect x="370" y="416" width="18" height="14" rx="3" fill="#57cbff" opacity="0.5"/>
  <rect x="400" y="416" width="18" height="14" rx="3" fill="#57cbff" opacity="0.5"/>
  <rect x="430" y="416" width="18" height="14" rx="3" fill="#57cbff" opacity="0.5"/>
  <rect x="460" y="416" width="18" height="14" rx="3" fill="#57cbff" opacity="0.5"/>
  <rect x="490" y="416" width="18" height="14" rx="3" fill="#57cbff" opacity="0.5"/>
  <rect x="520" y="416" width="18" height="14" rx="3" fill="#57cbff" opacity="0.5"/>
  <rect x="550" y="416" width="18" height="14" rx="3" fill="#57cbff" opacity="0.5"/>
  <rect x="580" y="416" width="18" height="14" rx="3" fill="#57cbff" opacity="0.5"/>
  <rect x="610" y="416" width="18" height="14" rx="3" fill="#57cbff" opacity="0.5"/>
  <rect x="640" y="416" width="18" height="14" rx="3" fill="#57cbff" opacity="0.5"/>
  <rect x="670" y="416" width="18" height="14" rx="3" fill="#57cbff" opacity="0.5"/>
  <rect x="700" y="416" width="18" height="14" rx="3" fill="#57cbff" opacity="0.5"/>
  <rect x="730" y="416" width="18" height="14" rx="3" fill="#57cbff" opacity="0.5"/>
  <rect x="760" y="416" width="18" height="14" rx="3" fill="#57cbff" opacity="0.5"/>
  <rect x="790" y="416" width="18" height="14" rx="3" fill="#57cbff" opacity="0.5"/>
  <rect x="820" y="416" width="18" height="14" rx="3" fill="#57cbff" opacity="0.5"/>

  <!-- Film frame cells (3x2 grid) -->
  <rect x="360" y="192" width="145" height="108" rx="3" fill="#0a192f" stroke="#233554" stroke-width="1"/>
  <rect x="515" y="192" width="145" height="108" rx="3" fill="#0a192f" stroke="#233554" stroke-width="1"/>
  <rect x="670" y="192" width="145" height="108" rx="3" fill="#0a192f" stroke="#233554" stroke-width="1"/>
  <rect x="360" y="308" width="145" height="100" rx="3" fill="#0a192f" stroke="#233554" stroke-width="1"/>
  <rect x="515" y="308" width="145" height="100" rx="3" fill="#0a192f" stroke="#233554" stroke-width="1"/>
  <rect x="670" y="308" width="145" height="100" rx="3" fill="#0a192f" stroke="#233554" stroke-width="1"/>

  <!-- Frame content - play triangles and abstract shapes -->
  <polygon points="420,230 420,276 458,253" fill="#57cbff" opacity="0.35"/>
  <polygon points="575,230 575,276 613,253" fill="#64ffda" opacity="0.35"/>
  <!-- Search icon in middle top frame -->
  <circle cx="742" cy="238" r="22" fill="none" stroke="#64ffda" stroke-width="3" opacity="0.7"/>
  <line x1="758" y1="254" x2="774" y2="270" stroke="#64ffda" stroke-width="3" opacity="0.7" stroke-linecap="round"/>

  <polygon points="420,338 420,384 458,361" fill="#64ffda" opacity="0.25"/>
  <polygon points="575,338 575,384 613,361" fill="#57cbff" opacity="0.25"/>
  <polygon points="730,338 730,384 768,361" fill="#64ffda" opacity="0.25"/>

  <!-- Labels -->
  <text x="600" y="510" text-anchor="middle" font-family="monospace" font-size="22" fill="#57cbff" letter-spacing="4" opacity="0.9">REELSEARCH</text>
  <text x="600" y="540" text-anchor="middle" font-family="monospace" font-size="13" fill="#8892b0" letter-spacing="2">Movie &amp; TV Discovery</text>

  <!-- Corner accents -->
  <line x1="30" y1="30" x2="80" y2="30" stroke="#57cbff" stroke-width="2" opacity="0.4"/>
  <line x1="30" y1="30" x2="30" y2="80" stroke="#57cbff" stroke-width="2" opacity="0.4"/>
  <line x1="1170" y1="30" x2="1120" y2="30" stroke="#57cbff" stroke-width="2" opacity="0.4"/>
  <line x1="1170" y1="30" x2="1170" y2="80" stroke="#57cbff" stroke-width="2" opacity="0.4"/>
  <line x1="30" y1="600" x2="80" y2="600" stroke="#57cbff" stroke-width="2" opacity="0.4"/>
  <line x1="30" y1="600" x2="30" y2="550" stroke="#57cbff" stroke-width="2" opacity="0.4"/>
  <line x1="1170" y1="600" x2="1120" y2="600" stroke="#57cbff" stroke-width="2" opacity="0.4"/>
  <line x1="1170" y1="600" x2="1170" y2="550" stroke="#57cbff" stroke-width="2" opacity="0.4"/>
</svg>
